<svg width="50" height="50" viewBox="0 0 50 50" fill="none" xmlns="http://www.w3.org/2000/svg">
<g clip-path="url(#clip0_5979_19145)">
<mask id="mask0_5979_19145" style="mask-type:luminance" maskUnits="userSpaceOnUse" x="0" y="0" width="50" height="50">
<path d="M50 0H0V50H50V0Z" fill="white"/>
</mask>
<g mask="url(#mask0_5979_19145)">
<path fill-rule="evenodd" clip-rule="evenodd" d="M2.00166 39.638C-1.58924 29.3918 -0.132828 11.0863 5.4695 5.34391C11.0905 -0.433253 28.7344 -1.52628 38.8835 2.06493C38.8878 2.08234 38.892 2.09977 38.8961 2.1172C41.2566 2.94263 43.2086 4.01817 44.5048 5.34383C51.375 12.3701 52.1557 39.0702 44.5048 45.3158C36.8539 51.5614 12.9645 51.5614 5.46972 45.3158C4.01055 44.0998 2.85914 42.1085 2.00166 39.638Z" fill="#1885D3"/>
<path d="M25.1094 37.3182C23.4124 37.3182 21.9048 37.0114 20.5866 36.3977C19.2685 35.7841 18.2268 34.9394 17.4616 33.8636C16.7041 32.7879 16.3101 31.553 16.2798 30.1591H21.7344C21.7798 31.0152 22.1283 31.7045 22.7798 32.2273C23.4313 32.7424 24.2079 33 25.1094 33C25.8139 33 26.4389 32.8447 26.9844 32.5341C27.5298 32.2235 27.9579 31.7879 28.2685 31.2273C28.5791 30.6591 28.7306 30.0076 28.723 29.2727C28.7306 28.5227 28.5753 27.8674 28.2571 27.3068C27.9465 26.7462 27.5147 26.3106 26.9616 26C26.4162 25.6818 25.7874 25.5227 25.0753 25.5227C24.401 25.5152 23.7609 25.6629 23.1548 25.9659C22.5563 26.2689 22.1018 26.6818 21.7912 27.2045L16.8253 26.2727L17.8366 13.7273H32.7685V18.2614H22.4616L21.9276 23.75H22.0639C22.4503 23.1061 23.0715 22.5758 23.9276 22.1591C24.7912 21.7348 25.7723 21.5227 26.8707 21.5227C28.2647 21.5227 29.5071 21.8485 30.598 22.5C31.6965 23.1439 32.5601 24.0379 33.1889 25.1818C33.8253 26.3258 34.1435 27.6364 34.1435 29.1136C34.1435 30.7121 33.7647 32.1288 33.0071 33.3636C32.2571 34.5985 31.2041 35.5682 29.848 36.2727C28.4995 36.9697 26.92 37.3182 25.1094 37.3182Z" fill="white"/>
</g>
</g>
<defs>
<clipPath id="clip0_5979_19145">
<rect width="50" height="50" fill="white"/>
</clipPath>
</defs>
</svg>
