<svg width="400" height="600" viewBox="0 0 400 600" fill="none" xmlns="http://www.w3.org/2000/svg">
<path fill-rule="evenodd" clip-rule="evenodd" d="M112.639 299.998C78.9771 245.562 60.9596 181.156 73.066 115.898C77.1982 93.6383 95.0581 76.3497 117.422 72.8256C137.432 69.673 151.895 68.0939 180.237 70.4499C170.022 87.4035 163.979 104.315 157.626 120.751C143.47 120.238 129.05 123.07 124.481 124.477C112.98 166.992 127.822 239.781 172.662 299.998H112.639Z" fill="#F9F9F9"/>
<path fill-rule="evenodd" clip-rule="evenodd" d="M167.513 167.516C182.2 105.221 215.004 46.9376 269.71 9.35698C288.369 -3.4645 313.227 -3.05916 331.532 10.2633C347.908 22.1813 359.252 31.29 377.627 52.9978C358.416 57.7633 342.186 65.4506 326.071 72.5777C316.425 62.2051 304.225 54.0112 299.997 51.7762C261.803 73.7064 220.828 135.672 209.957 209.96L167.513 167.516Z" fill="#F9F9F9"/>
<path fill-rule="evenodd" clip-rule="evenodd" d="M299.997 112.637C354.433 78.9742 418.841 60.9566 484.097 73.0631C506.356 77.1953 523.648 95.0552 527.172 117.419C530.322 137.429 531.904 151.892 529.548 180.234C512.591 170.019 495.683 163.976 479.244 157.623C479.759 143.467 476.928 129.047 475.517 124.478C433.002 112.977 360.217 127.82 299.997 172.66V112.637Z" fill="#F9F9F9"/>
<path fill-rule="evenodd" clip-rule="evenodd" d="M432.485 167.514C494.78 182.201 553.063 215.005 590.644 269.711C603.465 288.371 603.06 313.228 589.738 331.533C577.82 347.909 568.711 359.253 547.003 377.628C542.238 358.414 534.55 342.187 527.423 326.072C537.796 316.423 545.99 304.226 548.225 299.999C526.295 261.804 464.329 220.829 390.041 209.958L432.485 167.514Z" fill="#F9F9F9"/>
<path fill-rule="evenodd" clip-rule="evenodd" d="M432.482 432.486C417.795 494.78 384.991 553.064 330.285 590.644C311.626 603.463 286.768 603.06 268.463 589.738C252.087 577.82 240.743 568.711 222.368 547.003C241.579 542.235 257.809 534.551 273.924 527.424C283.571 537.793 295.77 545.987 299.998 548.222C338.192 526.292 379.167 464.33 390.038 390.041L432.482 432.486Z" fill="#F9F9F9"/>
<path fill-rule="evenodd" clip-rule="evenodd" d="M299.997 487.363C245.562 521.025 181.154 539.043 115.898 526.933C93.6384 522.804 76.347 504.941 72.8257 482.578C69.6731 462.57 68.094 448.108 70.4472 419.762C87.4036 429.977 104.315 436.021 120.751 442.377C120.235 456.532 123.07 470.95 124.477 475.518C166.992 487.022 239.78 472.177 299.997 427.337V487.363Z" fill="#F9F9F9"/>
<path fill-rule="evenodd" clip-rule="evenodd" d="M167.515 432.487C105.221 417.799 46.9375 384.998 9.35696 330.289C-3.46449 311.63 -3.05916 286.775 10.2633 268.467C22.1812 252.093 31.2899 240.747 52.9977 222.372C57.7632 241.583 65.4505 257.813 72.5775 273.928C62.205 283.574 54.0111 295.774 51.7761 300.002C73.7063 338.196 135.671 379.171 209.96 390.045L167.515 432.487Z" fill="#F9F9F9"/>
</svg>
