<svg width="755" height="755" viewBox="0 0 755 755" fill="none" xmlns="http://www.w3.org/2000/svg">
<path d="M490.801 490.801L544.211 544.211C525.728 622.598 484.45 695.938 415.612 743.227C392.132 759.357 360.853 758.851 337.82 742.087C317.212 727.09 302.938 715.628 279.816 688.312C303.99 682.312 324.413 672.643 344.691 663.674C356.829 676.723 372.18 687.034 377.5 689.846C425.561 662.25 477.122 584.281 490.801 490.801ZM88.6472 528.201C109.984 541.055 131.264 548.66 151.946 556.657C151.298 574.47 154.864 592.612 156.635 598.361C210.133 612.837 301.725 594.156 377.499 537.733V613.265C309.001 655.624 227.953 678.296 145.839 663.058C117.829 657.862 96.0711 635.385 91.6401 607.244C87.6731 582.068 85.6861 563.869 88.6472 528.201ZM613.263 377.494C655.622 445.992 678.294 527.036 663.057 609.153C657.861 637.163 635.387 658.921 607.246 663.356C582.066 667.319 563.867 669.306 528.203 666.342C541.057 645.008 548.661 623.728 556.656 603.047C574.468 603.695 592.61 600.132 598.362 598.357C612.835 544.859 594.158 453.267 537.731 377.494H613.263ZM66.689 279.816C72.6856 303.99 82.3587 324.413 91.327 344.691C78.2748 356.829 67.9641 372.18 65.1518 377.5C92.7473 425.561 170.72 477.122 264.2 490.805L210.791 544.211C132.403 525.729 59.0631 484.454 11.7742 415.612C-4.35949 392.132 -3.84945 360.857 12.9147 337.82C27.9115 317.216 39.3733 302.938 66.689 279.816ZM544.209 210.787C622.596 229.269 695.936 270.548 743.225 339.386C759.359 362.866 758.849 394.145 742.085 417.178C727.088 437.785 715.626 452.06 688.311 475.182C682.314 451.004 672.641 430.585 663.673 410.307C676.725 398.165 687.035 382.818 689.848 377.497C662.252 329.436 584.279 277.876 490.799 264.197L544.209 210.787ZM226.797 88.6507C213.943 109.984 206.338 131.264 198.344 151.946C180.531 151.301 162.386 154.864 156.637 156.635C142.165 210.133 160.841 301.725 217.265 377.499H141.736C99.3776 309.001 76.7054 227.957 91.9394 145.839C97.139 117.829 119.613 96.0747 147.754 91.6401C172.934 87.6731 191.132 85.6861 226.797 88.6507ZM417.177 12.9147C437.784 27.9115 452.058 39.3733 475.18 66.689C451.006 72.6856 430.583 82.3587 410.305 91.327C398.167 78.2748 382.816 67.9641 377.496 65.1518C329.435 92.7473 277.874 170.72 264.195 264.2L210.786 210.791C229.268 132.403 270.546 59.0631 339.384 11.7742C362.864 -4.35949 394.143 -3.84945 417.177 12.9147ZM609.155 91.9376C637.165 97.1373 658.923 119.611 663.358 147.752C667.322 172.932 669.312 191.131 666.347 226.795C645.011 213.941 623.734 206.336 603.049 198.342C603.697 180.53 600.134 162.384 598.359 156.635C544.861 142.163 453.273 160.84 377.496 217.263V141.734C445.994 99.3758 527.042 76.7036 609.155 91.9376Z" fill="#F9F9F9"/>
</svg>
