<svg width="24" height="24" viewBox="0 0 24 24" fill="none" xmlns="http://www.w3.org/2000/svg">
<path d="M12.9 7.1V8.9H11.1V7.1H12.9ZM12.9 11.1V16.9H11.1V11.1H12.9ZM2.1 12C2.1 6.53523 6.53523 2.1 12 2.1C17.4648 2.1 21.9 6.53523 21.9 12C21.9 17.4648 17.4648 21.9 12 21.9C6.53523 21.9 2.1 17.4648 2.1 12ZM3.9 12C3.9 16.4652 7.53477 20.1 12 20.1C16.4652 20.1 20.1 16.4652 20.1 12C20.1 7.53477 16.4652 3.9 12 3.9C7.53477 3.9 3.9 7.53477 3.9 12Z" fill="#6F7071" stroke="#F8F8F8" stroke-width="0.2"/>
</svg>
