<svg width="50" height="50" viewBox="0 0 50 50" fill="none" xmlns="http://www.w3.org/2000/svg">
<g clip-path="url(#clip0_5979_19153)">
<mask id="mask0_5979_19153" style="mask-type:luminance" maskUnits="userSpaceOnUse" x="0" y="0" width="50" height="50">
<path d="M50 0H0V50H50V0Z" fill="white"/>
</mask>
<g mask="url(#mask0_5979_19153)">
<path fill-rule="evenodd" clip-rule="evenodd" d="M2.00166 39.638C-1.58924 29.3918 -0.132828 11.0863 5.4695 5.34391C11.0905 -0.433253 28.7344 -1.52628 38.8835 2.06493C38.8878 2.08234 38.892 2.09977 38.8961 2.1172C41.2566 2.94263 43.2086 4.01817 44.5048 5.34383C51.375 12.3701 52.1557 39.0702 44.5048 45.3158C36.8539 51.5614 12.9645 51.5614 5.46972 45.3158C4.01055 44.0998 2.85914 42.1085 2.00166 39.638Z" fill="#1885D3"/>
<path d="M25.2798 37.3182C24.0071 37.3182 22.7874 37.1136 21.6207 36.7045C20.4541 36.2879 19.4162 35.6288 18.5071 34.7273C17.598 33.8182 16.8821 32.6288 16.3594 31.1591C15.8366 29.6818 15.5791 27.8826 15.5866 25.7614C15.5942 23.8447 15.8291 22.125 16.2912 20.6023C16.7533 19.072 17.4124 17.7727 18.2685 16.7045C19.1321 15.6364 20.1624 14.822 21.3594 14.2614C22.5639 13.6932 23.9086 13.4091 25.3935 13.4091C27.0223 13.4091 28.4579 13.7273 29.7003 14.3636C30.9503 14.9924 31.9503 15.8409 32.7003 16.9091C33.4503 17.9697 33.8935 19.1515 34.0298 20.4545H28.4957C28.3291 19.7197 27.9616 19.1629 27.3935 18.7841C26.8329 18.3977 26.1662 18.2045 25.3935 18.2045C23.9692 18.2045 22.9048 18.822 22.2003 20.0568C21.5033 21.2917 21.1473 22.9432 21.1321 25.0114H21.2798C21.598 24.3144 22.0563 23.7159 22.6548 23.2159C23.2533 22.7159 23.9389 22.3333 24.7116 22.0682C25.492 21.7955 26.3177 21.6591 27.1889 21.6591C28.5829 21.6591 29.8139 21.9811 30.8821 22.625C31.9503 23.2689 32.7874 24.1515 33.3935 25.2727C33.9995 26.3864 34.2988 27.6629 34.2912 29.1023C34.2988 30.7235 33.92 32.1553 33.1548 33.3977C32.3897 34.6326 31.3291 35.5947 29.973 36.2841C28.6245 36.9735 27.0601 37.3182 25.2798 37.3182ZM25.2457 33C25.9351 33 26.5526 32.8371 27.098 32.5114C27.6435 32.1856 28.0715 31.7424 28.3821 31.1818C28.6927 30.6212 28.8442 29.9886 28.8366 29.2841C28.8442 28.572 28.6927 27.9394 28.3821 27.3864C28.0791 26.8333 27.6548 26.3939 27.1094 26.0682C26.5715 25.7424 25.9541 25.5795 25.2571 25.5795C24.7495 25.5795 24.276 25.6742 23.8366 25.8636C23.3973 26.053 23.0147 26.3182 22.6889 26.6591C22.3707 26.9924 22.1207 27.3864 21.9389 27.8409C21.7571 28.2879 21.6624 28.7727 21.6548 29.2955C21.6624 29.9848 21.8215 30.6098 22.1321 31.1705C22.4427 31.7311 22.867 32.178 23.4048 32.5114C23.9427 32.8371 24.5563 33 25.2457 33Z" fill="white"/>
</g>
</g>
<defs>
<clipPath id="clip0_5979_19153">
<rect width="50" height="50" fill="white"/>
</clipPath>
</defs>
</svg>
