<svg width="50" height="50" viewBox="0 0 50 50" fill="none" xmlns="http://www.w3.org/2000/svg">
<g clip-path="url(#clip0_5979_19129)">
<mask id="mask0_5979_19129" style="mask-type:luminance" maskUnits="userSpaceOnUse" x="0" y="0" width="50" height="50">
<path d="M50 0H0V50H50V0Z" fill="white"/>
</mask>
<g mask="url(#mask0_5979_19129)">
<path fill-rule="evenodd" clip-rule="evenodd" d="M2.00166 39.638C-1.58924 29.3918 -0.132828 11.0863 5.4695 5.34391C11.0905 -0.433253 28.7344 -1.52628 38.8835 2.06493C38.8878 2.08234 38.892 2.09977 38.8961 2.1172C41.2566 2.94263 43.2086 4.01817 44.5048 5.34383C51.375 12.3701 52.1557 39.0702 44.5048 45.3158C36.8539 51.5614 12.9645 51.5614 5.46972 45.3158C4.01055 44.0998 2.85914 42.1085 2.00166 39.638Z" fill="#1885D3"/>
<path d="M24.8963 37.3182C23.1236 37.3182 21.5516 37.0152 20.1804 36.4091C18.8168 35.7955 17.741 34.9508 16.9531 33.875C16.1652 32.7992 15.7637 31.5606 15.7486 30.1591H21.4077C21.4304 30.6667 21.5933 31.1174 21.8963 31.5114C22.1993 31.8977 22.6122 32.2008 23.1349 32.4205C23.6577 32.6402 24.2524 32.75 24.919 32.75C25.5857 32.75 26.1728 32.6326 26.6804 32.3977C27.1955 32.1553 27.5971 31.8258 27.8849 31.4091C28.1728 30.9848 28.313 30.5 28.3054 29.9545C28.313 29.4091 28.1577 28.9242 27.8395 28.5C27.5213 28.0758 27.0705 27.7462 26.4872 27.5114C25.9115 27.2765 25.2296 27.1591 24.4418 27.1591H22.1804V23.1591H24.4418C25.1312 23.1591 25.7372 23.0455 26.2599 22.8182C26.7902 22.5909 27.2031 22.2727 27.4986 21.8636C27.794 21.447 27.938 20.9697 27.9304 20.4318C27.938 19.9091 27.813 19.4508 27.5554 19.0568C27.3054 18.6553 26.9531 18.3447 26.4986 18.125C26.0516 17.9053 25.5327 17.7955 24.9418 17.7955C24.3205 17.7955 23.7562 17.9053 23.2486 18.125C22.7486 18.3447 22.3509 18.6553 22.0554 19.0568C21.7599 19.4583 21.6046 19.9242 21.5895 20.4545H16.2145C16.2296 19.0682 16.616 17.8485 17.3736 16.7955C18.1312 15.7348 19.1615 14.9053 20.4645 14.3068C21.7751 13.7083 23.2675 13.4091 24.9418 13.4091C26.6084 13.4091 28.0743 13.7008 29.3395 14.2841C30.6046 14.8674 31.5895 15.6629 32.294 16.6705C32.9986 17.6705 33.3509 18.803 33.3509 20.0682C33.3584 21.3788 32.9304 22.4583 32.0668 23.3068C31.2107 24.1553 30.1084 24.678 28.7599 24.875V25.0568C30.563 25.2689 31.9228 25.8523 32.8395 26.8068C33.7637 27.7614 34.2221 28.9545 34.2145 30.3864C34.2145 31.7348 33.8168 32.9318 33.0213 33.9773C32.2334 35.0152 31.1349 35.8333 29.7259 36.4318C28.3243 37.0227 26.7145 37.3182 24.8963 37.3182Z" fill="white"/>
</g>
</g>
<defs>
<clipPath id="clip0_5979_19129">
<rect width="50" height="50" fill="white"/>
</clipPath>
</defs>
</svg>
