<svg width="50" height="50" viewBox="0 0 50 50" fill="none" xmlns="http://www.w3.org/2000/svg">
<g clip-path="url(#clip0_5979_19118)">
<mask id="mask0_5979_19118" style="mask-type:luminance" maskUnits="userSpaceOnUse" x="0" y="0" width="50" height="50">
<path d="M50 0H0V50H50V0Z" fill="white"/>
</mask>
<g mask="url(#mask0_5979_19118)">
<path fill-rule="evenodd" clip-rule="evenodd" d="M2.00166 39.638C-1.58924 29.3918 -0.132828 11.0863 5.4695 5.34391C11.0905 -0.433253 28.7344 -1.52628 38.8835 2.06493C38.8878 2.08234 38.892 2.09977 38.8961 2.1172C41.2566 2.94263 43.2086 4.01817 44.5048 5.34383C51.375 12.3701 52.1557 39.0702 44.5048 45.3158C36.8539 51.5614 12.9645 51.5614 5.46972 45.3158C4.01055 44.0998 2.85914 42.1085 2.00166 39.638Z" fill="#1885D3"/>
<path d="M17.0128 37V32.9545L25.5014 25.5227C26.1378 24.947 26.6795 24.4205 27.1264 23.9432C27.5734 23.4583 27.9143 22.9735 28.1491 22.4886C28.384 21.9962 28.5014 21.4621 28.5014 20.8864C28.5014 20.2424 28.3613 19.6932 28.081 19.2386C27.8007 18.7765 27.4143 18.4205 26.9219 18.1705C26.4295 17.9205 25.8651 17.7955 25.2287 17.7955C24.5848 17.7955 24.0204 17.928 23.5355 18.1932C23.0507 18.4508 22.6719 18.8258 22.3991 19.3182C22.134 19.8106 22.0014 20.4091 22.0014 21.1136H16.6719C16.6719 19.5303 17.0279 18.1629 17.7401 17.0114C18.4522 15.8598 19.4522 14.9735 20.7401 14.3523C22.0355 13.7235 23.5393 13.4091 25.2514 13.4091C27.0166 13.4091 28.5507 13.7045 29.8537 14.2955C31.1567 14.8864 32.1643 15.7121 32.8764 16.7727C33.5961 17.8258 33.956 19.0492 33.956 20.4432C33.956 21.3295 33.7779 22.2083 33.4219 23.0795C33.0658 23.9508 32.4257 24.9129 31.5014 25.9659C30.5848 27.0189 29.2817 28.2803 27.5923 29.75L24.8082 32.3182V32.4659H34.2401V37H17.0128Z" fill="white"/>
</g>
</g>
<defs>
<clipPath id="clip0_5979_19118">
<rect width="50" height="50" fill="white"/>
</clipPath>
</defs>
</svg>
