<svg width="50" height="50" viewBox="0 0 50 50" fill="none" xmlns="http://www.w3.org/2000/svg">
<g clip-path="url(#clip0)">
<path fill-rule="evenodd" clip-rule="evenodd" d="M2.00313 39.638C-1.58777 29.3918 -0.131363 11.0863 5.47097 5.34391C11.092 -0.433252 28.7359 -1.52628 38.885 2.06493C38.8893 2.08234 38.8935 2.09977 38.8976 2.1172C41.2581 2.94263 43.2101 4.01817 44.5063 5.34383C51.3765 12.3701 52.1572 39.0702 44.5063 45.3158C36.8554 51.5614 12.966 51.5614 5.47119 45.3158C4.01202 44.0998 2.86061 42.1085 2.00313 39.638Z" fill="#1885D3"/>
<path d="M26.0815 27.0473V21.7385H32.4832V27.0473H35.9183V32.8245H32.4832V40.0069H26.0815V32.8245H13.9026V27.6719L24.6762 9.87195H32.0148L21.7095 27.0473H26.0815Z" fill="white"/>
</g>
<defs>
<clipPath id="clip0">
<rect width="50" height="50" fill="white"/>
</clipPath>
</defs>
</svg>
